<svg version="1.0" xmlns="http://www.w3.org/2000/svg"
 width="300.000000pt" height="132.000000pt" viewBox="0 0 300.000000 132.000000"
 preserveAspectRatio="xMidYMid meet">
<g transform="translate(0.000000,132.000000) scale(0.100000,-0.100000)"
fill="#000000" stroke="none">
<path d="M2172 1163 c-28 -21 -40 -24 -72 -19 -35 5 -47 1 -117 -45 -43 -28
-107 -67 -141 -86 l-64 -36 -38 22 c-35 19 -41 20 -78 7 -56 -20 -145 -78
-220 -143 -39 -34 -68 -53 -77 -49 -9 3 -45 -12 -80 -34 -36 -22 -70 -40 -76
-40 -15 0 -127 69 -166 102 -18 15 -50 30 -70 34 -75 14 -119 36 -168 83 -71
69 -83 71 -156 22 -78 -52 -128 -66 -186 -52 -55 14 -85 2 -172 -67 -61 -49
-68 -52 -122 -52 -43 0 -63 -5 -80 -20 l-24 -21 32 16 c18 8 57 15 87 15 46 0
61 5 88 28 18 16 53 43 77 60 43 31 46 32 125 26 74 -6 86 -4 131 19 28 14 61
34 74 46 13 12 30 21 38 21 8 0 38 -22 66 -49 60 -56 92 -74 164 -91 29 -6 68
-24 88 -40 19 -15 66 -46 104 -69 l70 -43 70 42 c38 23 78 40 89 38 11 -2 43
19 83 53 77 67 144 113 201 139 l43 19 42 -24 42 -23 88 50 c48 28 113 68 144
89 50 34 60 37 93 29 32 -7 41 -5 66 17 l30 24 47 -38 c27 -22 86 -70 133
-107 47 -37 130 -111 185 -164 120 -115 198 -162 283 -167 l57 -4 -48 9 c-97
17 -166 60 -282 174 -61 59 -153 142 -205 184 -52 42 -111 91 -130 109 l-35
32 -33 -26z"/>
<path d="M2660 415 l0 -295 30 0 c30 0 30 0 30 58 1 110 17 185 45 210 29 25
98 31 112 10 4 -7 10 -71 13 -143 l5 -130 33 -3 32 -3 0 128 c0 102 -4 135
-18 163 -34 69 -129 88 -194 40 l-30 -22 2 54 c1 29 1 92 1 141 l-1 87 -30 0
-30 0 0 -295z m50 147 c0 -76 3 -142 7 -145 4 -4 19 4 33 18 56 53 152 39 183
-28 13 -27 17 -64 17 -156 l0 -121 -25 0 -25 0 0 127 c0 143 -8 163 -66 163
-86 0 -112 -40 -121 -184 -5 -94 -8 -106 -25 -106 -17 0 -18 14 -18 285 0 278
0 285 20 285 19 0 20 -7 20 -138z"/>
<path d="M1275 679 c-3 -8 -4 -136 -3 -284 l3 -270 32 -3 33 -3 2 184 3 184
140 -198 c77 -109 143 -195 147 -191 5 5 7 132 6 283 l-3 274 -30 0 -30 0 -5
-184 -5 -185 -26 40 c-106 160 -259 365 -264 353z m150 -209 c77 -109 143
-199 148 -200 4 0 7 86 7 190 l0 190 25 0 25 0 0 -272 c-1 -247 -2 -271 -16
-253 -8 11 -71 100 -140 197 -69 98 -129 180 -134 183 -6 4 -10 -66 -10 -184
l0 -191 -25 0 -25 0 0 270 c0 149 1 270 3 270 2 0 66 -90 142 -200z"/>
<path d="M25 647 c-3 -7 -4 -127 -3 -267 l3 -255 89 -3 c111 -4 177 15 235 65
118 101 122 303 8 399 -41 35 -105 64 -137 63 -18 -1 -15 -3 13 -10 120 -28
196 -124 197 -247 0 -105 -42 -178 -131 -227 -47 -25 -66 -29 -161 -33 l-108
-5 2 259 3 259 80 6 80 5 -83 2 c-59 1 -84 -2 -87 -11z"/>
<path d="M80 390 l0 -210 75 0 c55 0 86 5 113 19 131 67 162 231 64 334 -29
31 -73 57 -94 57 -7 0 7 -11 32 -24 147 -74 144 -290 -5 -357 -26 -12 -64 -19
-107 -19 l-68 0 0 200 0 199 68 4 67 3 -72 2 -73 2 0 -210z"/>
<path d="M2450 535 l0 -65 -45 0 c-43 0 -45 -1 -45 -30 0 -29 2 -30 45 -30
l45 0 0 -145 0 -145 30 0 30 0 0 145 0 145 45 0 c43 0 45 1 45 30 0 29 -2 30
-45 30 l-45 0 0 65 0 65 -30 0 -30 0 0 -65z m52 -7 l3 -63 43 -3 c33 -3 42 -7
42 -22 0 -15 -9 -19 -42 -22 l-43 -3 -3 -142 c-2 -134 -4 -143 -22 -143 -18 0
-20 9 -22 143 l-3 142 -42 3 c-34 3 -43 7 -43 22 0 15 9 19 43 22 l42 3 3 63
c3 53 6 62 22 62 16 0 19 -9 22 -62z"/>
<path d="M602 459 c-43 -22 -93 -81 -91 -109 0 -8 6 -3 13 12 38 86 137 130
223 97 60 -22 113 -95 113 -154 l0 -25 -151 0 -150 0 7 -22 c14 -48 70 -88
122 -88 16 0 46 11 66 25 20 14 48 25 62 25 l25 0 -20 -29 c-31 -43 -83 -64
-150 -59 -70 5 -111 31 -140 90 -11 24 -21 37 -21 30 0 -26 31 -71 66 -98 42
-33 134 -45 184 -24 30 13 90 72 90 90 0 19 -60 10 -96 -15 -61 -42 -138 -26
-169 35 l-16 30 151 0 150 0 0 33 c-1 128 -151 216 -268 156z"/>
<path d="M1825 465 c-101 -54 -136 -166 -81 -259 68 -116 248 -115 314 2 44
79 23 177 -51 236 -46 37 -133 47 -182 21z m155 -15 c57 -29 84 -73 88 -145 3
-50 0 -66 -20 -95 -38 -56 -82 -80 -148 -80 -66 0 -110 24 -148 80 -32 46 -28
139 7 188 48 68 145 91 221 52z"/>
<path d="M1866 420 c-51 -16 -96 -73 -96 -122 0 -60 69 -128 130 -128 62 0
131 70 129 130 -1 18 -4 13 -10 -16 -6 -24 -22 -53 -40 -70 -25 -24 -39 -29
-79 -29 -43 0 -54 5 -82 33 -27 27 -33 40 -33 76 0 119 146 165 212 67 13 -19
23 -29 23 -24 0 20 -44 66 -76 79 -37 16 -38 16 -78 4z"/>
<path d="M2280 473 c-8 -3 -23 -12 -32 -21 -16 -14 -18 -13 -18 2 0 13 -7 17
-32 14 l-33 -3 0 -170 0 -170 33 -3 32 -3 0 101 c0 113 15 164 53 181 18 8 30
8 46 0 20 -11 21 -10 19 31 -1 38 -2 39 -5 10 -4 -27 -8 -32 -23 -27 -26 8
-57 -10 -80 -48 -16 -26 -20 -51 -20 -134 l0 -103 -25 0 -25 0 1 165 0 165 25
0 c19 0 24 -5 24 -27 l1 -28 19 24 c11 13 37 29 58 37 20 7 28 13 17 13 -11 0
-27 -3 -35 -6z"/>
<path d="M900 461 c0 -7 33 -86 128 -308 14 -35 30 -59 34 -55 7 7 158 360
158 369 0 2 -15 3 -34 3 l-35 0 -41 -107 c-23 -60 -45 -112 -49 -116 -4 -4
-28 44 -52 108 -43 114 -44 115 -76 115 -18 0 -33 -4 -33 -9z m105 -121 c26
-66 50 -120 53 -120 4 0 27 53 52 118 41 106 48 117 72 120 l27 3 -59 -138
c-32 -76 -65 -156 -75 -178 l-16 -40 -75 175 c-40 96 -74 176 -74 178 0 1 11
2 24 2 22 0 29 -13 71 -120z"/>
<path d="M660 423 c-39 -12 -62 -29 -80 -59 -11 -17 -20 -34 -20 -38 0 -3 56
-6 125 -6 69 0 125 2 125 5 0 25 -38 70 -73 86 -44 19 -52 21 -77 12z m89 -32
c13 -9 31 -27 39 -39 l14 -22 -116 0 c-108 0 -116 1 -107 18 35 65 111 85 170
43z"/>
</g>
</svg>
